# Куб (единичный, с центром в начале координат)
# Создано: DeepSeek
# Формат OBJ

# Вершины (координаты x, y, z)
v -0.5 -0.5  0.5  # 1: передняя-нижняя-левая
v  0.5 -0.5  0.5  # 2: передняя-нижняя-правая
v  0.5  0.5  0.5  # 3: передняя-верхняя-правая
v -0.5  0.5  0.5  # 4: передняя-верхняя-левая

v -0.5 -0.5 -0.5  # 5: задняя-нижняя-левая
v  0.5 -0.5 -0.5  # 6: задняя-нижняя-правая
v  0.5  0.5 -0.5  # 7: задняя-верхняя-правая
v -0.5  0.5 -0.5  # 8: задняя-верхняя-левая

# Текстурные координаты (u, v) - опционально, но часто нужны
vt 0.0 0.0  # 1
vt 1.0 0.0  # 2
vt 1.0 1.0  # 3
vt 0.0 1.0  # 4

# Нормали (векторы) - опционально
vn  0.0  0.0  1.0  # передняя грань
vn  0.0  0.0 -1.0  # задняя грань
vn  0.0  1.0  0.0  # верхняя грань
vn  0.0 -1.0  0.0  # нижняя грань
vn  1.0  0.0  0.0  # правая грань
vn -1.0  0.0  0.0  # левая грань

# Группа/Объект
o Cube

# Грани (полигоны)
# Формат: f вершина/текстура/нормаль
# Передняя грань (использует нормаль 1)
f 1/1/1 2/2/1 3/3/1
f 3/3/1 4/4/1 1/1/1

# Задняя грань (использует нормаль 2)
f 6/2/2 5/1/2 8/4/2
f 8/4/2 7/3/2 6/2/2

# Верхняя грань (использует нормаль 3)
f 4/1/3 3/2/3 7/3/3
f 7/3/3 8/4/3 4/1/3

# Нижняя грань (использует нормаль 4)
f 2/1/4 1/2/4 5/3/4
f 5/3/4 6/4/4 2/1/4

# Правая грань (использует нормаль 5)
f 3/1/5 2/2/5 6/3/5
f 6/3/5 7/4/5 3/1/5

# Левая грань (использует нормаль 6)
f 1/1/6 4/2/6 8/3/6
f 8/3/6 5/4/6 1/1/6